HIERARCHY
ROOT Hips
{
	OFFSET 0.000000 0.000000 0.000000
	CHANNELS 6 Xposition Yposition Zposition Zrotation Yrotation Xrotation 
	JOINT LHipJoint
	{
		OFFSET 0.000000 0.000000 0.000000
		CHANNELS 3 Zrotation Yrotation Xrotation
		JOINT LeftUpLeg
		{
			OFFSET 1.363060 -1.794630 0.839290
			CHANNELS 3 Zrotation Yrotation Xrotation
			JOINT LeftLeg
			{
				OFFSET 2.448110 -6.726130 0.000000
				CHANNELS 3 Zrotation Yrotation Xrotation
				JOINT LeftFoot
				{
					OFFSET 2.562200 -7.039590 0.000000
					CHANNELS 3 Zrotation Yrotation Xrotation
					JOINT LeftToeBase
					{
						OFFSET 0.157640 -0.433110 2.322550
						CHANNELS 3 Zrotation Yrotation Xrotation
						End Site
						{
							OFFSET 0.000000 0.000000 0.000000
						}
					}
				}
			}
		}
	}
	JOINT RHipJoint
	{
		OFFSET 0.000000 0.000000 0.000000
		CHANNELS 3 Zrotation Yrotation Xrotation
		JOINT RightUpLeg
		{
			OFFSET -1.305520 -1.794630 0.839290
			CHANNELS 3 Zrotation Yrotation Xrotation
			JOINT RightLeg
			{
				OFFSET -2.542530 -6.985550 0.000000
				CHANNELS 3 Zrotation Yrotation Xrotation
				JOINT RightFoot
				{
					OFFSET -2.568260 -7.056230 0.000000
					CHANNELS 3 Zrotation Yrotation Xrotation
					JOINT RightToeBase
					{
						OFFSET -0.164730 -0.452590 2.363150
						CHANNELS 3 Zrotation Yrotation Xrotation
						End Site
						{
							OFFSET 0.000000 0.000000 0.000000
						}
					}
				}
			}
		}
	}
	JOINT LowerBack
	{
		OFFSET 0.000000 0.000000 0.000000
		CHANNELS 3 Zrotation Yrotation Xrotation
		JOINT Spine
		{
			OFFSET 0.028270 2.035590 -0.193380
			CHANNELS 3 Zrotation Yrotation Xrotation
			JOINT Spine1
			{
				OFFSET 0.056720 2.048850 -0.042750
				CHANNELS 3 Zrotation Yrotation Xrotation
				JOINT Neck
				{
					OFFSET 0.000000 0.000000 0.000000
					CHANNELS 3 Zrotation Yrotation Xrotation
					JOINT Neck1
					{
						OFFSET -0.054170 1.746240 0.172020
						CHANNELS 3 Zrotation Yrotation Xrotation
						JOINT Head
						{
							OFFSET 0.104070 1.761360 -0.123970
							CHANNELS 3 Zrotation Yrotation Xrotation
							End Site
							{
								OFFSET 0.000000 0.000000 0.000000
							}
						}
					}
				}
				JOINT LeftShoulder
				{
					OFFSET 0.000000 0.000000 0.000000
					CHANNELS 3 Zrotation Yrotation Xrotation
					JOINT LeftArm
					{
						OFFSET 3.362410 1.200890 -0.311210
						CHANNELS 3 Zrotation Yrotation Xrotation
						JOINT LeftForeArm
						{
							OFFSET 4.983000 -0.000000 -0.000000
							CHANNELS 3 Zrotation Yrotation Xrotation
							JOINT LeftHand
							{
								OFFSET 3.483560 -0.000000 -0.000000
								CHANNELS 3 Zrotation Yrotation Xrotation
								JOINT LeftFingerBase
								{
									OFFSET 0.000000 0.000000 0.000000
									CHANNELS 3 Zrotation Yrotation Xrotation
									JOINT LeftHandIndex1
									{
										OFFSET 0.715260 -0.000000 -0.000000
										CHANNELS 3 Zrotation Yrotation Xrotation
										End Site
										{
											OFFSET 0.000000 0.000000 0.000000
										}
									}
								}
								JOINT LThumb
								{
									OFFSET 0.000000 0.000000 0.000000
									CHANNELS 3 Zrotation Yrotation Xrotation
									End Site
									{
										OFFSET 0.000000 0.000000 0.000000
									}
								}
							}
						}
					}
				}
				JOINT RightShoulder
				{
					OFFSET 0.000000 0.000000 0.000000
					CHANNELS 3 Zrotation Yrotation Xrotation
					JOINT RightArm
					{
						OFFSET -3.136600 1.374050 -0.404650
						CHANNELS 3 Zrotation Yrotation Xrotation
						JOINT RightForeArm
						{
							OFFSET -5.241900 -0.000000 -0.000000
							CHANNELS 3 Zrotation Yrotation Xrotation
							JOINT RightHand
							{
								OFFSET -3.444170 -0.000000 -0.000000
								CHANNELS 3 Zrotation Yrotation Xrotation
								JOINT RightFingerBase
								{
									OFFSET 0.000000 0.000000 0.000000
									CHANNELS 3 Zrotation Yrotation Xrotation
									JOINT RightHandIndex1
									{
										OFFSET -0.622530 -0.000000 -0.000000
										CHANNELS 3 Zrotation Yrotation Xrotation
										End Site
										{
											OFFSET 0.000000 0.000000 0.000000
										}
									}
								}
								JOINT RThumb
								{
									OFFSET 0.000000 0.000000 0.000000
									CHANNELS 3 Zrotation Yrotation Xrotation
									End Site
									{
										OFFSET 0.000000 0.000000 0.000000
									}
								}
							}
						}
					}
				}
			}
		}
	}
}
MOTION
Frames: 4
Frame Time: 0.008333
0.773133 17.679552 24.178769 1.510583 -0.272355 0.904651 -1.221611 6.024874 5.645314 -22.531108 -6.860194 -4.799230 0.102855 5.479321 23.127630 1.351533 -4.075497 -3.842501 0.004238 0.408811 1.123233 0.519088 -4.083348 2.857472 16.942409 9.912302 -34.999090 -4.856088 -12.885426 41.476276 2.400222 -10.026234 4.740760 -0.038499 1.266093 -3.481185 -2.994730 -1.367855 4.389992 3.132724 -1.843182 5.714745 3.088541 -1.005043 -7.053658 -6.090825 -3.327751 -14.685111 4.322164 -3.612060 15.764501 0.430504 -1.463328 8.074442 -7.032350 2.489191 -1.167932 -75.155858 -2.567018 31.322032 15.071094 -24.939793 -3.460322 -0.302748 -0.676675 -8.127652 29.342749 19.744788 11.251759 -7.125000 0.000000 0.000000 1.302390 53.139814 0.258162 11.124601 -2.130489 -2.703985 75.351825 -2.428980 13.299526 -11.235280 23.350113 -2.726685 1.022660 -0.308442 4.076336 -18.591795 21.466400 -7.473346 7.125000 0.000000 0.000000 5.744754 -7.298709 4.994226
0.768162 17.681858 24.284299 1.595190 -0.110635 1.023719 -1.253302 6.053828 5.706531 -22.532078 -6.788485 -4.337023 0.020739 5.310515 22.669028 1.353867 -4.090734 -3.852911 0.002280 0.301353 0.827897 0.598987 -4.058356 2.799364 16.686543 10.020879 -34.997387 -4.402297 -12.453642 39.680997 2.584627 -10.648823 5.207497 -0.035825 1.220115 -3.354592 -3.091272 -1.446141 4.271937 3.123264 -1.946363 5.755730 3.141467 -1.062844 -6.956895 -6.106070 -3.361867 -14.871867 4.352408 -3.637249 15.756070 0.438534 -1.472824 8.104506 -7.028809 2.484593 -1.168501 -74.974875 -2.885675 31.481366 15.250137 -25.191509 -3.540471 -0.298071 -0.677574 -8.393341 29.379233 19.789624 11.291267 -7.125000 0.000000 0.000000 1.331782 53.196865 0.267232 11.122799 -2.129224 -2.703886 75.385191 -2.440489 13.144005 -11.193627 23.284582 -2.704024 1.027384 -0.322370 4.304337 -18.744659 21.687765 -7.614364 7.125000 0.000000 0.000000 5.662129 -7.038760 4.949639
0.762276 17.683972 24.389382 1.672504 0.047042 1.162503 -1.286285 6.081877 5.766904 -22.516260 -6.728297 -3.887778 -0.068267 5.131065 22.176144 1.360234 -4.134124 -3.816499 0.001134 0.215255 0.591328 0.681219 -4.032348 2.738506 16.425778 10.166957 -35.001935 -3.952865 -12.008807 37.873866 2.769386 -11.270776 5.652391 -0.032042 1.154825 -3.174887 -3.201998 -1.524707 4.165569 3.130915 -2.051160 5.784621 3.211265 -1.120698 -6.874297 -6.159680 -3.407706 -15.084713 4.404840 -3.669253 15.747885 0.458024 -1.485607 8.139243 -7.026601 2.482413 -1.169423 -74.804991 -3.187059 31.616755 15.438258 -25.453994 -3.623450 -0.288325 -0.683625 -8.706589 29.264605 20.161964 11.431878 -7.125000 0.000000 0.000000 1.133103 53.591241 0.239087 11.121517 -2.126839 -2.701067 75.404750 -2.421108 12.970260 -11.128310 23.181798 -2.667749 1.035710 -0.344209 4.588516 -18.984567 22.064304 -7.845774 7.125000 0.000000 0.000000 5.534415 -6.599500 4.884865
0.755785 17.681292 24.495019 1.760311 0.177127 1.320762 -1.319654 6.106393 5.823097 -22.502629 -6.600028 -3.463036 -0.160257 4.938972 21.649956 1.422082 -4.403022 -3.765688 0.001000 0.203782 0.559903 0.767815 -4.009881 2.675381 16.147730 10.313315 -34.949294 -3.519757 -11.539937 36.072163 2.935867 -11.818391 6.000673 -0.034030 1.189525 -3.270394 -3.345740 -1.578589 4.114089 3.163846 -2.128753 5.668097 3.310325 -1.160782 -6.911477 -6.146559 -3.389452 -15.019730 4.318929 -3.644027 15.687445 0.434429 -1.483809 8.109987 -7.025713 2.470769 -1.164572 -74.673318 -3.276099 31.730993 15.644399 -25.731085 -3.714634 -0.268305 -0.688879 -8.903703 28.641925 20.693808 11.408051 -7.125000 0.000000 0.000000 0.335196 54.053307 0.066957 11.124394 -2.139333 -2.708017 75.369051 -2.575261 12.767959 -11.030266 23.039208 -2.621697 1.043249 -0.359721 4.789132 -19.133368 22.311715 -7.997597 7.125000 0.000000 0.000000 5.456114 -6.310706 4.845556
